# xmcd CD database file
#
# Track frame offsets:
#	150
#	23535
#	66015
#	96775
#	122780
#	151832
#
# Disc length: 2633 seconds
#
# Revision: 0
# Processed by: cddbd v1.5.2PL0 Copyright (c) Steve Scherf et al.
# Submitted via: CDex 1.70beta2
#
DISCID=3e0a4706
DTITLE=Uli Beckerhoff - Camporondo
DYEAR=1989
DGENRE=Jazz
TTITLE0=The Nature Line
TTITLE1=Peter, the Genius of the Revolution
TTITLE2=Somehow in September
TTITLE3=Camporondo
TTITLE4=Soft Movements
TTITLE5=Farrah's Eye
EXTD=YEAR: 1989
EXTT0=
EXTT1=
EXTT2=
EXTT3=
EXTT4=
EXTT5=
PLAYORDER=
